# xmcd
#
# Track frame offsets: 
#        150
#        47012
#        74758
#        96415
#        121037
#        170421
#        218680
#        251766
#        269975
#        281985
#
# Disc length: 3968 seconds
#
# Revision: 3
# Processed by: cddbd v1.5.2PL0 Copyright (c) Steve Scherf et al.
# Submitted via: ExactAudioCopy v0.90b4
#
DISCID=a40f7e0a
DTITLE=Various Artist - Cool Jazz - The Essential Album [CD1)
DYEAR=2003
DGENRE=Cool Jazz
TTITLE0=Lee Morgan - The Sidewinder
TTITLE1=Young Holt Trio - Song For My Father
TTITLE2=Miles Davis - Nature Boy
TTITLE3=Kenny Burrell - Chitlins Con Carne
TTITLE4=Cannonball Adderley feat. Miles Davis - Autumn Leaves
TTITLE5=John Coltrane - Blue Train
TTITLE6=Stan Getz Quartet - Tempus Fugit
TTITLE7=Sonny Rollins - 'Round Midnight
TTITLE8=Mose Allison - The Seventh Son
TTITLE9=Chet Baker - Over The Rainbow
EXTD=YEAR: 2003
EXTT0=
EXTT1=
EXTT2=
EXTT3=
EXTT4=
EXTT5=
EXTT6=
EXTT7=
EXTT8=
EXTT9=
PLAYORDER=
